<svg xmlns="http://www.w3.org/2000/svg" width="38" height="40" viewBox="0 0 38 40">
  <metadata><?xpacket begin="﻿" id="W5M0MpCehiHzreSzNTczkc9d"?>
<x:xmpmeta xmlns:x="adobe:ns:meta/" x:xmptk="Adobe XMP Core 5.6-c138 79.159824, 2016/09/14-01:09:01        ">
   <rdf:RDF xmlns:rdf="http://www.w3.org/1999/02/22-rdf-syntax-ns#">
      <rdf:Description rdf:about=""/>
   </rdf:RDF>
</x:xmpmeta>
                                                                                                    
                                                                                                    
                                                                                                    
                                                                                                    
                                                                                                    
                                                                                                    
                                                                                                    
                                                                                                    
                                                                                                    
                                                                                                    
                                                                                                    
                                                                                                    
                                                                                                    
                                                                                                    
                                                                                                    
                                                                                                    
                                                                                                    
                                                                                                    
                                                                                                    
                                                                                                    
                           
<?xpacket end="w"?></metadata>
<defs>
    <style>
      .cls-1 {
        fill: #292929;
        fill-rule: evenodd;
      }
    </style>
  </defs>
  <path id="Фигура_1" data-name="Фигура 1" class="cls-1" d="M490,66.6V64.229a3,3,0,0,1,2.965-3.027h17.006c2.326,0,3.525,1.125,3.525,2.8v3.374c0,1.749-1.151,2.624-3.525,2.624H492.742C491.012,70,490,68.825,490,66.6Zm3.356,0.2H510.14a0.226,0.226,0,0,0,.223-0.228V64.629a0.226,0.226,0,0,0-.223-0.228H493.356a0.226,0.226,0,0,0-.223.228v1.943A0.226,0.226,0,0,0,493.356,66.8Zm9.735-23.993a0.226,0.226,0,0,1,.223.228v7.427h0L502.428,52.9a0.228,0.228,0,0,0,.21.307h1.243a0.223,0.223,0,0,0,.182-0.1l16.2-23.043a0.22,0.22,0,0,1,.3-0.062l3.246,2a0.23,0.23,0,0,1,.079.308l-0.957,1.713a0.233,0.233,0,0,0-.029.113V44.179a0.226,0.226,0,0,0,.223.228h0.676a0.227,0.227,0,0,1,.221.26L523.3,49.81a0.225,0.225,0,0,1-.221.2h-0.185v1.549a0.226,0.226,0,0,0,.121.2,2.561,2.561,0,0,1,.741,3.944,0.231,0.231,0,0,0,.016.329l3.6,3.173a0.229,0.229,0,0,1-.146.4h-0.515a0.219,0.219,0,0,1-.146-0.055l-3.6-3.168a0.217,0.217,0,0,0-.216-0.044,2.859,2.859,0,0,1-.948.167,2.147,2.147,0,0,1-.922-0.214,0.219,0.219,0,0,0-.235.029l-3.9,3.233a0.221,0.221,0,0,1-.141.051l-0.454,0a0.258,0.258,0,0,1-.156-0.456l3.982-3.3a0.228,0.228,0,0,0,.045-0.3,2.5,2.5,0,0,1-.406-1.422,0.783,0.783,0,1,1,1.566,0,1.2,1.2,0,0,0,.031.286,0.221,0.221,0,0,0,.357.121l0,0a0.385,0.385,0,0,1,.5.008l0.172,0.151a0.219,0.219,0,0,0,.282.008,0.843,0.843,0,0,0,.289-0.706,0.972,0.972,0,0,0-.834-0.924,0.8,0.8,0,0,1-.654-0.789V50.233a0.226,0.226,0,0,0-.223-0.228h-0.463a0.225,0.225,0,0,1-.219-0.183l-1.006-5.143a0.226,0.226,0,0,1,.219-0.273h0.686a0.226,0.226,0,0,0,.223-0.228V39.535a0.222,0.222,0,0,0-.421-0.105l-8.952,17.593a0.239,0.239,0,0,0-.025.105v0.647a0.226,0.226,0,0,1-.223.228h-2.686a0.226,0.226,0,0,0-.224.228v1.144a0.225,0.225,0,0,1-.223.228h-11.3a0.226,0.226,0,0,1-.223-0.228V58.231A0.226,0.226,0,0,0,496.043,58H491.79a0.226,0.226,0,0,1-.223-0.228V43.035a0.226,0.226,0,0,1,.223-0.228h11.3Zm7,4.159-0.01.014,2.614,1.737a0.225,0.225,0,0,0,.33-0.274l-1.243-3.255a0.222,0.222,0,0,0-.389-0.051Zm11.238-2.787a0.226,0.226,0,0,0,.224.228h0.336a0.226,0.226,0,0,0,.224-0.228V36.5a0.223,0.223,0,0,0-.421-0.107l-0.337.648a0.233,0.233,0,0,0-.026.107v7.029Zm-0.384-8.5,0.96-1.863a0.229,0.229,0,0,0-.075-0.3l-1.5-1.005a0.224,0.224,0,0,0-.342.233l0.537,2.868A0.222,0.222,0,0,0,520.943,35.678Zm-2.417-1.319-1.109,1.965a0.231,0.231,0,0,0,.073.305l1.79,1.177a0.224,0.224,0,0,0,.339-0.241l-0.681-3.142A0.222,0.222,0,0,0,518.526,34.359ZM518.4,39.522l-1.656-1.1a0.225,0.225,0,0,0-.34.24l0.649,3.011a0.221,0.221,0,0,0,.414.059l1.008-1.911A0.231,0.231,0,0,0,518.4,39.522Zm-3.374.394-1.259,1.874a0.231,0.231,0,0,0,.064.321l1.892,1.237a0.224,0.224,0,0,0,.339-0.238L515.429,40A0.221,0.221,0,0,0,515.027,39.916Zm0.394,5.523-2.087-1.46a0.225,0.225,0,0,0-.335.268l1.188,3.249a0.222,0.222,0,0,0,.408.024l0.9-1.79A0.232,0.232,0,0,0,515.421,45.438Zm-3.8,7.314,1.042-1.877a0.232,0.232,0,0,0-.065-0.3l-2.586-1.886a0.225,0.225,0,0,0-.336.274l1.545,3.763A0.221,0.221,0,0,0,511.618,52.752Zm-1.585,1.5-1.861-4.1a0.221,0.221,0,0,0-.382-0.039l-1.514,2.108a0.231,0.231,0,0,0,.069.332l3.374,1.988A0.225,0.225,0,0,0,510.033,54.251Zm-15.11-3.446h5.035a0.226,0.226,0,0,0,.224-0.228V46.235a0.226,0.226,0,0,0-.224-0.228h-5.035a0.226,0.226,0,0,0-.224.228v4.343A0.226,0.226,0,0,0,494.923,50.805Zm32.294,13.6h0.56a0.226,0.226,0,0,1,.223.228v1.144a0.226,0.226,0,0,1-.223.228H515.692a0.226,0.226,0,0,1-.223-0.228V64.629a0.226,0.226,0,0,1,.223-0.228h1.12a0.226,0.226,0,0,0,.224-0.228V62.23A0.226,0.226,0,0,0,516.812,62h-1.12a0.226,0.226,0,0,1-.223-0.228V60.631a0.226,0.226,0,0,1,.223-0.228h12.085a0.226,0.226,0,0,1,.223.228v1.144a0.226,0.226,0,0,1-.223.228h-1.12a0.226,0.226,0,0,0-.223.228v1.944a0.226,0.226,0,0,0,.223.228h0.56Z" transform="translate(-490 -30)"/>
</svg>
